# Trash Bin
# Simple waste disposal bin
# Color: Dark grey/black (apply in Unity)

# Base
v -0.2 0.0 -0.2
v 0.2 0.0 -0.2
v 0.2 0.0 0.2
v -0.2 0.0 0.2

# Top (slightly wider)
v -0.25 0.5 -0.25
v 0.25 0.5 -0.25
v 0.25 0.5 0.25
v -0.25 0.5 0.25

# Lid base
v -0.27 0.51 -0.27
v 0.27 0.51 -0.27
v 0.27 0.51 0.27
v -0.27 0.51 0.27

# Lid top
v -0.25 0.56 -0.25
v 0.25 0.56 -0.25
v 0.25 0.56 0.25
v -0.25 0.56 0.25

# Bin body
f 1 2 6 5
f 2 3 7 6
f 3 4 8 7
f 4 1 5 8
f 1 4 3 2  # Bottom

# Lid
f 9 10 11 12  # Lid bottom
f 13 14 15 16  # Lid top
f 9 10 14 13  # Lid sides
f 10 11 15 14
f 11 12 16 15
f 12 9 13 16
