# Kitchen Counter (Wood Brown) 3D Model for Little Cafe
# Unity: Import this .obj file

v -0.5 0.0 -0.5
v 0.5 0.0 -0.5
v 0.5 0.0 0.5
v -0.5 0.0 0.5
v -0.5 0.9 -0.5
v 0.5 0.9 -0.5
v 0.5 0.9 0.5
v -0.5 0.9 0.5

f 4 3 2 1
f 5 6 7 8
f 1 2 6 5
f 2 3 7 6
f 3 4 8 7
f 4 1 5 8

# Countertop surface
v -0.5 0.9 -0.5
v 0.5 0.9 -0.5
v 0.5 0.9 0.5
v -0.5 0.9 0.5
v -0.48 0.95 -0.48
v 0.48 0.95 -0.48
v 0.48 0.95 0.48
v -0.48 0.95 0.48
f 9 10 11 12
f 13 14 15 16
f 9 10 14 13
f 10 11 15 14
f 11 12 16 15
f 12 9 13 16
