# Plate Rack
# Storage for clean plates with circular indent
# Color: Pink/magenta (apply in Unity)

# Base platform
v -0.5 0.0 -0.5
v 0.5 0.0 -0.5
v 0.5 0.0 0.5
v -0.5 0.0 0.5
v -0.5 0.1 -0.5
v 0.5 0.1 -0.5
v 0.5 0.1 0.5
v -0.5 0.1 0.5

# Raised rim (octagon for circular indent)
v -0.25 0.1 -0.35
v 0.0 0.1 -0.4
v 0.25 0.1 -0.35
v 0.35 0.1 -0.1
v 0.35 0.1 0.1
v 0.25 0.1 0.35
v 0.0 0.1 0.4
v -0.25 0.1 0.35
v -0.35 0.1 0.1
v -0.35 0.1 -0.1

# Rim top
v -0.25 0.15 -0.35
v 0.0 0.15 -0.4
v 0.25 0.15 -0.35
v 0.35 0.15 -0.1
v 0.35 0.15 0.1
v 0.25 0.15 0.35
v 0.0 0.15 0.4
v -0.25 0.15 0.35
v -0.35 0.15 0.1
v -0.35 0.15 -0.1

# Base platform faces
f 1 2 6 5
f 2 3 7 6
f 3 4 8 7
f 4 1 5 8
f 1 4 3 2
f 5 6 7 8

# Rim outer sides (8 faces)
f 9 10 19 18
f 10 11 20 19
f 11 12 21 20
f 12 13 22 21
f 13 14 23 22
f 14 15 24 23
f 15 16 25 24
f 16 17 26 25

# Rim top
f 18 19 20 21 22 23 24 25 26 27

# Rim inner (indent)
f 9 18 27 17
f 17 27 26 16
