# Cooking Pot
# Separate pot that sits on stove
# Color: Dark grey/metallic (apply in Unity)

# Pot body (octagon approximation for cylinder)
v -0.15 0.96 -0.2
v 0.0 0.96 -0.25
v 0.15 0.96 -0.2
v 0.2 0.96 0.0
v 0.15 0.96 0.2
v 0.0 0.96 0.25
v -0.15 0.96 0.2
v -0.2 0.96 0.0

# Pot top (slightly wider)
v -0.17 1.2 -0.22
v 0.0 1.2 -0.27
v 0.17 1.2 -0.22
v 0.22 1.2 0.0
v 0.17 1.2 0.22
v 0.0 1.2 0.27
v -0.17 1.2 0.22
v -0.22 1.2 0.0

# Handle 1 (left side)
v -0.25 1.05 -0.05
v -0.3 1.05 -0.05
v -0.3 1.15 -0.05
v -0.25 1.15 -0.05

# Handle 2 (right side)
v 0.25 1.05 0.05
v 0.3 1.05 0.05
v 0.3 1.15 0.05
v 0.25 1.15 0.05

# Pot sides (8 faces)
f 1 2 10 9
f 2 3 11 10
f 3 4 12 11
f 4 5 13 12
f 5 6 14 13
f 6 7 15 14
f 7 8 16 15
f 8 1 9 16

# Pot bottom
f 1 8 7 6 5 4 3 2

# Pot top rim
f 9 10 11 12 13 14 15 16

# Handle 1
f 17 18 19 20

# Handle 2
f 21 22 23 24
